<svg width="25" height="28" viewBox="0 0 25 28" fill="none" xmlns="http://www.w3.org/2000/svg">
<path fill-rule="evenodd" clip-rule="evenodd" d="M5.64516 6.85484C5.64516 3.06902 8.71418 0 12.5 0C16.2858 0 19.3548 3.06902 19.3548 6.85484C19.3548 10.6407 16.2858 13.7097 12.5 13.7097C8.71418 13.7097 5.64516 10.6407 5.64516 6.85484ZM12.5 2.41935C10.0504 2.41935 8.06452 4.40519 8.06452 6.85484C8.06452 9.30449 10.0504 11.2903 12.5 11.2903C14.9496 11.2903 16.9355 9.30449 16.9355 6.85484C16.9355 4.40519 14.9496 2.41935 12.5 2.41935Z" fill="white"/>
<path fill-rule="evenodd" clip-rule="evenodd" d="M6.04839 18.5484C4.04413 18.5484 2.41935 20.1732 2.41935 22.1774V24.094C2.41935 24.1232 2.4405 24.1481 2.46931 24.1528C9.11246 25.2374 15.8875 25.2374 22.5307 24.1528C22.5595 24.1481 22.5806 24.1232 22.5806 24.094V22.1774C22.5806 20.1732 20.9559 18.5484 18.9516 18.5484H18.4018C18.3593 18.5484 18.3171 18.5551 18.2767 18.5683L16.8807 19.0241C14.0342 19.9536 10.9658 19.9536 8.11933 19.0241L6.72334 18.5683C6.68293 18.5551 6.64069 18.5484 6.59818 18.5484H6.04839ZM0 22.1774C0 18.837 2.70795 16.129 6.04839 16.129H6.59818C6.89574 16.129 7.19144 16.1761 7.47431 16.2685L8.8703 16.7243C11.2288 17.4944 13.7712 17.4944 16.1297 16.7243L17.5257 16.2685C17.8086 16.1761 18.1043 16.129 18.4018 16.129H18.9516C22.292 16.129 25 18.837 25 22.1774V24.094C25 25.3089 24.1195 26.3448 22.9205 26.5405C16.0192 27.6673 8.98081 27.6673 2.07947 26.5405C0.880457 26.3448 0 25.3089 0 24.094V22.1774Z" fill="white"/>
</svg>
