<svg width="36" height="27" viewBox="0 0 36 27" fill="none" xmlns="http://www.w3.org/2000/svg">
<path fill-rule="evenodd" clip-rule="evenodd" d="M36 13.3548C36 12.3928 35.2201 11.6129 34.2581 11.6129H1.74194C0.77989 11.6129 0 12.3928 0 13.3548C0 14.3169 0.77989 15.0968 1.74194 15.0968H34.2581C35.2201 15.0968 36 14.3169 36 13.3548Z" fill="white"/>
<path fill-rule="evenodd" clip-rule="evenodd" d="M36 1.74194C36 0.779891 35.2201 0 34.2581 0H1.74194C0.77989 0 0 0.779891 0 1.74194C0 2.70398 0.77989 3.48387 1.74194 3.48387H34.2581C35.2201 3.48387 36 2.70398 36 1.74194Z" fill="white"/>
<path fill-rule="evenodd" clip-rule="evenodd" d="M36 24.9677C36 24.0057 35.2201 23.2258 34.2581 23.2258H1.74194C0.77989 23.2258 0 24.0057 0 24.9677C0 25.9298 0.77989 26.7097 1.74194 26.7097H34.2581C35.2201 26.7097 36 25.9298 36 24.9677Z" fill="white"/>
</svg>
